<svg xmlns="http://www.w3.org/2000/svg" viewBox="0 0 32 32" enable-background="new 0 0 32 32">
    <path style="text-indent:0;text-align:start;line-height:normal;text-transform:none;block-progression:tb;-inkscape-font-specification:Bitstream Vera Sans" d="M 6 4 L 6 5 L 6 27 L 6 28 L 7 28 L 17.09375 28 C 18.481052 30.385631 21.050941 32 24 32 C 28.406433 32 32 28.406433 32 24 C 32 20.28861 29.437134 17.177817 26 16.28125 L 26 5 L 26 4 L 25 4 L 7 4 L 6 4 z M 8 6 L 24 6 L 24 11 L 8 11 L 8 6 z M 8 13 L 24 13 L 24 16 C 21.481724 16 19.2495 17.171637 17.78125 19 L 8 19 L 8 13 z M 24 18 C 27.325553 18 30 20.674447 30 24 C 30 27.325553 27.325553 30 24 30 C 20.674447 30 18 27.325553 18 24 C 18 20.674447 20.674447 18 24 18 z M 8 21 L 16.59375 21 C 16.212597 21.931376 16 22.934152 16 24 C 16 24.695043 16.113347 25.356318 16.28125 26 L 8 26 L 8 21 z M 27.28125 21.28125 L 24 24.5625 L 21.71875 22.28125 L 20.28125 23.71875 L 23.28125 26.71875 L 24 27.40625 L 24.71875 26.71875 L 28.71875 22.71875 L 27.28125 21.28125 z" color="#000" overflow="visible" enable-background="accumulate" font-family="Bitstream Vera Sans"/>
</svg>