<svg xmlns="http://www.w3.org/2000/svg" viewBox="0 0 32 32">
    <path style="text-indent:0;text-align:start;line-height:normal;text-transform:none;block-progression:tb;-inkscape-font-specification:Bitstream Vera Sans" d="M 16 5 C 12.145852 5 9 8.1458513 9 12 C 9 14.408843 10.23116 16.55212 12.09375 17.8125 C 8.5266131 19.342333 6 22.881262 6 27 L 8 27 C 8 24.768856 8.9105674 22.761009 10.375 21.3125 L 12.21875 23.625 L 12.78125 24.34375 L 13.5625 23.84375 L 16 22.21875 L 18.4375 23.84375 L 19.28125 24.375 L 19.84375 23.5625 L 21.4375 21.15625 C 23.00403 22.614995 24 24.68167 24 27 L 26 27 C 26 22.881262 23.473387 19.342333 19.90625 17.8125 C 21.76884 16.55212 23 14.408843 23 12 C 23 8.1458513 19.854148 5 16 5 z M 16 7 C 18.773268 7 21 9.2267317 21 12 C 21 14.773268 18.773268 17 16 17 C 13.226732 17 11 14.773268 11 12 C 11 9.2267317 13.226732 7 16 7 z M 16 19 C 17.384583 19 18.678787 19.354256 19.8125 19.96875 L 18.71875 21.59375 L 16.5625 20.15625 L 16 19.8125 L 15.4375 20.15625 L 13.21875 21.65625 L 12 20.09375 C 13.178979 19.410841 14.534612 19 16 19 z" color="#000" overflow="visible" font-family="Bitstream Vera Sans"/>
</svg>