<svg xmlns="http://www.w3.org/2000/svg" viewBox="0 0 32 32" enable-background="new 0 0 32 32">
    <path style="text-indent:0;text-align:start;line-height:normal;text-transform:none;block-progression:tb;-inkscape-font-specification:Bitstream Vera Sans" d="M 0 7 L 0 8 L 0 24 L 0 25 L 1 25 L 31 25 L 32 25 L 32 24 L 32 8 L 32 7 L 31 7 L 1 7 L 0 7 z M 2 9 L 30 9 L 30 23 L 2 23 L 2 9 z M 9.5 12 C 8.1166667 12 7 13.116667 7 14.5 L 7 17.5 C 7 18.883333 8.1166667 20 9.5 20 C 10.883333 20 12 18.883333 12 17.5 L 12 17 L 10 17 L 10 17.5 C 10 17.716667 9.7166667 18 9.5 18 C 9.2833333 18 9 17.716667 9 17.5 L 9 14.5 C 9 14.283333 9.2833333 14 9.5 14 C 9.7166667 14 10 14.283333 10 14.5 L 10 15 L 12 15 L 12 14.5 C 12 13.116667 10.883333 12 9.5 12 z M 15 13 L 15 15 L 13 15 L 13 17 L 15 17 L 15 19 L 17 19 L 17 17 L 19 17 L 19 15 L 17 15 L 17 13 L 15 13 z M 22 13 L 22 15 L 20 15 L 20 17 L 22 17 L 22 19 L 24 19 L 24 17 L 26 17 L 26 15 L 24 15 L 24 13 L 22 13 z"/>
</svg>