<svg xmlns="http://www.w3.org/2000/svg" viewBox="0 0 32 32" enable-background="new 0 0 32 32">
    <path style="text-indent:0;text-align:start;line-height:normal;text-transform:none;block-progression:tb;-inkscape-font-specification:Bitstream Vera Sans" d="M 0 7 L 0 8 L 0 24 L 0 25 L 1 25 L 31 25 L 32 25 L 32 24 L 32 8 L 32 7 L 31 7 L 1 7 L 0 7 z M 2 9 L 30 9 L 30 23 L 2 23 L 2 9 z M 12.5 12 C 11.116667 12 10 13.116667 10 14.5 L 10 17.5 C 10 18.883333 11.116667 20 12.5 20 C 13.883333 20 15 18.883333 15 17.5 L 15 17 L 13 17 L 13 17.5 C 13 17.716667 12.716667 18 12.5 18 C 12.283333 18 12 17.716667 12 17.5 L 12 14.5 C 12 14.283333 12.283333 14 12.5 14 C 12.716667 14 13 14.283333 13 14.5 L 13 15 L 15 15 L 15 14.5 C 15 13.116667 13.883333 12 12.5 12 z M 18 12 L 17.875 13 L 16.90625 13 L 16.59375 15 L 17.625 15 L 17.375 17 L 16.40625 17 L 16.1875 19 L 17.125 19 L 17 20 L 19 20 L 19.125 19 L 20.125 19 L 20 20 L 22 20 L 22.125 19 L 23.09375 19 L 23.40625 17 L 22.375 17 L 22.625 15 L 23.59375 15 L 23.90625 13 L 22.875 13 L 23 12 L 21 12 L 20.875 13 L 19.875 13 L 20 12 L 18 12 z M 19.625 15 L 20.625 15 L 20.375 17 L 19.375 17 L 19.625 15 z" color="#000" overflow="visible" enable-background="accumulate" font-family="Bitstream Vera Sans"/>
</svg>