<svg xmlns="http://www.w3.org/2000/svg" viewBox="0 0 32 32" enable-background="new 0 0 32 32">
    <path style="text-indent:0;text-align:start;line-height:normal;text-transform:none;block-progression:tb;-inkscape-font-specification:Bitstream Vera Sans" d="M 6 4 L 6 5 L 6 27 L 6 28 L 7 28 L 18 28 L 18.5 28 L 19 28 L 22 28 L 22 31 L 22 32 L 23 32 L 27 32 L 28 32 L 28 31 L 28 28 L 31 28 L 32 28 L 32 27 L 32 23 L 32 22 L 31 22 L 28 22 L 28 19 L 28 18 L 27 18 L 26 18 L 26 5 L 26 4 L 25 4 L 7 4 L 6 4 z M 8 6 L 24 6 L 24 11 L 8 11 L 8 6 z M 8 13 L 24 13 L 24 18 L 23 18 L 22 18 L 22 19 L 8 19 L 8 13 z M 24 20 L 26 20 L 26 23 L 26 24 L 27 24 L 30 24 L 30 26 L 27 26 L 26 26 L 26 27 L 26 30 L 24 30 L 24 27 L 24 26 L 23 26 L 20 26 L 20 24 L 23 24 L 24 24 L 24 23 L 24 20 z M 8 21 L 22 21 L 22 22 L 19 22 L 18 22 L 18 23 L 18 26 L 8 26 L 8 21 z" color="#000" overflow="visible" enable-background="accumulate" font-family="Bitstream Vera Sans"/>
</svg>