<svg xmlns="http://www.w3.org/2000/svg" viewBox="0 0 32 32" enable-background="new 0 0 32 32">
    <path style="text-indent:0;text-align:start;line-height:normal;text-transform:none;block-progression:tb;-inkscape-font-specification:Bitstream Vera Sans" d="M 6 4 L 6 5 L 6 27 L 6 28 L 7 28 L 17.0625 28 C 17.395458 28.569584 17.79607 29.10857 18.28125 29.59375 C 21.374087 32.686587 26.500913 32.686587 29.59375 29.59375 C 29.735147 29.452353 29.863769 29.302482 30 29.15625 L 30 32 L 32 32 L 32 27 L 32 26 L 31 26 L 26 26 L 26 28 L 28.34375 28 C 28.284702 28.061915 28.250551 28.124449 28.1875 28.1875 C 25.880337 30.494663 22.025913 30.494663 19.71875 28.1875 C 17.411587 25.880337 17.411587 22.025913 19.71875 19.71875 C 22.025913 17.411587 25.880337 17.411587 28.1875 19.71875 C 29.230365 20.761615 29.82391 22.046149 29.90625 23.28125 L 31.90625 23.125 C 31.78859 21.360101 30.950885 19.638385 29.59375 18.28125 C 28.571595 17.259095 27.319628 16.594417 26 16.25 L 26 5 L 26 4 L 25 4 L 7 4 L 6 4 z M 8 6 L 24 6 L 24 11 L 8 11 L 8 6 z M 8 13 L 24 13 L 24 15.96875 C 23.97948 15.968597 23.958021 15.96875 23.9375 15.96875 C 21.882156 15.96875 19.827669 16.734831 18.28125 18.28125 C 18.050506 18.511994 17.852564 18.748303 17.65625 19 L 8 19 L 8 13 z M 8 21 L 16.5 21 C 15.883827 22.592255 15.788481 24.357459 16.21875 26 L 8 26 L 8 21 z" color="#000" overflow="visible" enable-background="accumulate" font-family="Bitstream Vera Sans"/>
</svg>