<svg xmlns="http://www.w3.org/2000/svg" viewBox="0 0 32 32" enable-background="new 0 0 32 32">
    <path style="text-indent:0;text-align:start;line-height:normal;text-transform:none;block-progression:tb;-inkscape-font-specification:Bitstream Vera Sans" d="M 6 4 L 6 5 L 6 27 L 6 28 L 7 28 L 18.125 28 C 18.680656 28.623392 19.278269 29.18739 19.875 29.65625 C 21.740757 31.122202 23.59375 31.90625 23.59375 31.90625 L 24 32.09375 L 24.40625 31.90625 C 24.40625 31.90625 26.259243 31.122202 28.125 29.65625 C 29.990757 28.190298 32 25.966667 32 23 L 32 18 L 32 17 L 31 17 C 29.22094 17 28.175584 16.56626 27.21875 16.09375 C 26.821328 15.897492 26.418702 15.692402 26 15.5 L 26 5 L 26 4 L 25 4 L 7 4 L 6 4 z M 8 6 L 24 6 L 24 11 L 8 11 L 8 6 z M 8 13 L 24 13 L 24 15 C 22.666667 15 21.752872 15.623564 20.8125 16.09375 C 19.872128 16.563936 18.833333 17 17 17 L 16 17 L 16 18 L 16 19 L 8 19 L 8 13 z M 24 17 C 24.666667 17 25.275584 17.37876 26.34375 17.90625 C 27.215507 18.336747 28.458478 18.719387 30 18.875 L 30 23 C 30 25.033333 28.509243 26.809702 26.875 28.09375 C 25.443619 29.218407 24.334754 29.691555 24 29.84375 C 23.665246 29.691555 22.556381 29.218407 21.125 28.09375 C 19.490757 26.809702 18 25.033333 18 23 L 18 18.875 C 19.573422 18.720515 20.820531 18.339734 21.6875 17.90625 C 22.747128 17.376436 23.333333 17 24 17 z M 8 21 L 16 21 L 16 23 C 16 24.101844 16.274716 25.103901 16.71875 26 L 8 26 L 8 21 z" color="#000" overflow="visible" enable-background="accumulate" font-family="Bitstream Vera Sans"/>
</svg>