<svg xmlns="http://www.w3.org/2000/svg" viewBox="0 0 32 32" enable-background="new 0 0 32 32">
    <path style="text-indent:0;text-align:start;line-height:normal;text-transform:none;block-progression:tb;-inkscape-font-specification:Bitstream Vera Sans" d="M 6 4 L 6 5 L 6 27 L 6 28 L 7 28 L 14 28 L 14 31 L 14 32 L 15 32 L 19 32 L 20 32 L 20 31 L 20 30 L 21 30 L 22 30 L 22 29 L 22 28 L 23 28 L 23.40625 28 L 23.71875 27.71875 L 24.5625 26.875 C 24.871196 26.934996 25.153524 27 25.5 27 C 29.055556 27 32 24.055556 32 20.5 C 32 17.113876 29.325611 14.293453 26 14.03125 L 26 5 L 26 4 L 25 4 L 7 4 L 6 4 z M 8 6 L 24 6 L 24 11 L 8 11 L 8 6 z M 8 13 L 24 13 L 24 14.1875 C 21.636837 14.759092 19.759092 16.636837 19.1875 19 L 8 19 L 8 13 z M 25.5 16 C 27.944444 16 30 18.055556 30 20.5 C 30 22.944444 27.944444 25 25.5 25 C 25.266667 25 24.799455 24.93424 24.4375 24.84375 L 23.90625 24.6875 L 23.5 25.09375 L 22.5625 26 L 21 26 L 20 26 L 20 27 L 20 28 L 19 28 L 18 28 L 18 29 L 18 30 L 16 30 L 16 27.4375 L 20.90625 22.5 L 21.3125 22.09375 L 21.15625 21.5625 C 21.05625 21.1625 21 20.866667 21 20.5 C 21 18.055556 23.055556 16 25.5 16 z M 27 18 C 26.447715 18 26 18.447715 26 19 C 26 19.552285 26.447715 20 27 20 C 27.552285 20 28 19.552285 28 19 C 28 18.447715 27.552285 18 27 18 z M 8 21 L 19.03125 21 C 19.05494 21.164706 19.091473 21.307479 19.125 21.46875 L 14.5625 26 L 8 26 L 8 21 z" color="#000" overflow="visible" enable-background="accumulate" font-family="Bitstream Vera Sans"/>
</svg>