<svg xmlns="http://www.w3.org/2000/svg" viewBox="0 0 32 32" enable-background="new 0 0 32 32">
    <path d="M 6 4 L 6 28 L 16 28 L 15.09375 26 L 8 26 L 8 21 L 15.3125 21 L 16.09375 19 L 8 19 L 8 13 L 24 13 L 24 15.40625 L 26 15.40625 L 26 4 L 6 4 z M 8 6 L 24 6 L 24 11 L 8 11 L 8 6 z M 22 16.59375 L 20.1875 17.40625 L 20.6875 18.59375 C 19.7875 19.09375 19.09375 19.8875 18.59375 20.6875 L 17.40625 20.1875 L 16.59375 22 L 17.8125 22.5 C 17.6125 23.5 17.6125 24.5 17.8125 25.5 L 16.59375 26 L 17.40625 27.8125 L 18.59375 27.3125 C 19.09375 28.2125 19.8875 28.90625 20.6875 29.40625 L 20.1875 30.59375 L 22 31.40625 L 22.5 30.1875 C 23 30.2875 23.5 30.40625 24 30.40625 C 24.5 30.40625 25 30.2875 25.5 30.1875 L 26 31.40625 L 27.8125 30.59375 L 27.3125 29.40625 C 28.2125 28.90625 28.90625 28.1125 29.40625 27.3125 L 30.59375 27.8125 L 31.40625 26 L 30.1875 25.5 C 30.4875 24.5 30.4875 23.5 30.1875 22.5 L 31.40625 22 L 30.59375 20.1875 L 29.40625 20.6875 C 28.90625 19.7875 28.1125 19.09375 27.3125 18.59375 L 27.8125 17.40625 L 26 16.59375 L 25.5 17.8125 C 25 17.7125 24.5 17.59375 24 17.59375 C 23.5 17.59375 23 17.7125 22.5 17.8125 L 22 16.59375 z M 24 19.59375 C 25.8 19.59375 27.39375 20.7125 28.09375 22.3125 C 28.99375 24.6125 27.8875 27.09375 25.6875 28.09375 C 25.1875 28.29375 24.6 28.40625 24 28.40625 C 22.2 28.40625 20.60625 27.2875 19.90625 25.6875 C 19.00625 23.4875 20.0125 20.90625 22.3125 19.90625 C 22.8125 19.70625 23.4 19.59375 24 19.59375 z"/>
</svg>