<svg xmlns="http://www.w3.org/2000/svg" viewBox="0 0 32 32" enable-background="new 0 0 32 32">
    <path style="text-indent:0;text-align:start;line-height:normal;text-transform:none;block-progression:tb;-inkscape-font-specification:Bitstream Vera Sans" d="M 0 7 L 0 8 L 0 24 L 0 25 L 1 25 L 31 25 L 32 25 L 32 24 L 32 8 L 32 7 L 31 7 L 1 7 L 0 7 z M 2 9 L 30 9 L 30 23 L 2 23 L 2 9 z M 12 12 L 12 17.5 C 12 17.716667 11.716667 18 11.5 18 C 11.283333 18 11 17.716667 11 17.5 L 11 17 L 9 17 L 9 17.5 C 9 18.883333 10.116667 20 11.5 20 C 12.883333 20 14 18.883333 14 17.5 L 14 12 L 12 12 z M 18.5 12 C 17.116667 12 16 13.116667 16 14.5 C 16 15.883333 17.116667 17 18.5 17 C 18.716667 17 19 17.283333 19 17.5 C 19 17.8 18.881481 18 18.5 18 C 18.131818 18 18.075546 17.91998 18.0625 17.90625 C 18.049454 17.892518 18 17.827083 18 17.59375 L 16 17.59375 C 16 18.160417 16.163046 18.794982 16.625 19.28125 C 17.086954 19.767518 17.768182 20 18.5 20 C 19.918519 20 21 18.8 21 17.5 C 21 16.116667 19.883333 15 18.5 15 C 18.283333 15 18 14.716667 18 14.5 C 18 14.283333 18.283333 14 18.5 14 C 18.766667 14 18.847593 14.06341 18.90625 14.125 C 18.964907 14.18659 19 14.294345 19 14.40625 L 21 14.40625 C 21 13.818155 20.785093 13.21341 20.34375 12.75 C 19.902407 12.28659 19.233333 12 18.5 12 z" color="#000" overflow="visible" enable-background="accumulate" font-family="Bitstream Vera Sans"/>
</svg>