<svg xmlns="http://www.w3.org/2000/svg" viewBox="0 0 32 32" enable-background="new 0 0 32 32">
    <path style="text-indent:0;text-align:start;line-height:normal;text-transform:none;block-progression:tb;-inkscape-font-specification:Bitstream Vera Sans" d="M 0 7 L 0 8 L 0 24 L 0 25 L 1 25 L 31 25 L 32 25 L 32 24 L 32 8 L 32 7 L 31 7 L 1 7 L 0 7 z M 2 9 L 30 9 L 30 23 L 2 23 L 2 9 z M 10 12 L 10 17.5 C 10 17.716667 9.7166667 18 9.5 18 C 9.2833333 18 9 17.716667 9 17.5 L 9 17 L 7 17 L 7 17.5 C 7 18.883333 8.1166667 20 9.5 20 C 10.883333 20 12 18.883333 12 17.5 L 12 12 L 10 12 z M 15.5 12 C 14.116667 12 13 13.116667 13 14.5 C 13 15.883333 14.116667 17 15.5 17 C 15.716667 17 16 17.283333 16 17.5 C 16 17.8 15.881481 18 15.5 18 C 15.131818 18 15.075546 17.91998 15.0625 17.90625 C 15.049454 17.892518 15 17.827083 15 17.59375 L 13 17.59375 C 13 18.160417 13.163046 18.794982 13.625 19.28125 C 14.086954 19.767518 14.768182 20 15.5 20 C 16.918519 20 18 18.8 18 17.5 C 18 16.116667 16.883333 15 15.5 15 C 15.283333 15 15 14.716667 15 14.5 C 15 14.283333 15.283333 14 15.5 14 C 15.766667 14 15.847593 14.06341 15.90625 14.125 C 15.964907 14.18659 16 14.294345 16 14.40625 L 18 14.40625 C 18 13.818155 17.785093 13.21341 17.34375 12.75 C 16.902407 12.28659 16.233333 12 15.5 12 z M 19 12 L 19 13 L 19 20 L 21 20 L 21 18 C 22.645455 18 24 16.645455 24 15 C 24 13.354545 22.645455 12 21 12 L 20 12 L 19 12 z M 21 14 C 21.554545 14 22 14.445455 22 15 C 22 15.554545 21.554545 16 21 16 L 21 14 z" color="#000" overflow="visible" enable-background="accumulate" font-family="Bitstream Vera Sans"/>
</svg>