<svg xmlns="http://www.w3.org/2000/svg" viewBox="0 0 32 32" enable-background="new 0 0 32 32">
    <path style="text-indent:0;text-align:start;line-height:normal;text-transform:none;block-progression:tb;-inkscape-font-specification:Bitstream Vera Sans" d="M 4 4 L 4 5 L 4 19 L 4 20 L 5 20 L 12 20 L 12 27 L 12 28 L 13 28 L 27 28 L 28 28 L 28 27 L 28 13 L 28 12 L 27 12 L 20 12 L 20 5 L 20 4 L 19 4 L 5 4 L 4 4 z M 6 6 L 18 6 L 18 12.59375 L 17.28125 13.28125 L 18.71875 14.71875 L 19.40625 14 L 26 14 L 26 26 L 14 26 L 14 19.40625 L 14.71875 18.71875 L 13.28125 17.28125 L 12.59375 18 L 6 18 L 6 6 z M 9.71875 8.28125 L 8.28125 9.71875 L 10.78125 12.21875 L 9 14 L 14 14 L 14 9 L 12.21875 10.78125 L 9.71875 8.28125 z M 16.28125 14.28125 L 14.28125 16.28125 L 15.71875 17.71875 L 17.71875 15.71875 L 16.28125 14.28125 z M 18 18 L 18 23 L 19.78125 21.21875 L 22.28125 23.71875 L 23.71875 22.28125 L 21.21875 19.78125 L 23 18 L 18 18 z"/>
</svg>