<svg xmlns="http://www.w3.org/2000/svg" viewBox="0 0 32 32" enable-background="new 0 0 32 32">
    <path style="text-indent:0;text-align:start;line-height:normal;text-transform:none;block-progression:tb;-inkscape-font-specification:Bitstream Vera Sans" d="M 2 6 L 2 7 L 2 19.6875 L 0.46875 22.03125 L 0.46875 22.0625 C 0.19284122 22.485117 0 22.987862 0 23.5 C 0 24.883333 1.1166667 26 2.5 26 L 19 26 L 30 26 C 30.522222 26 31.060469 25.814531 31.4375 25.4375 C 31.814531 25.060469 32 24.522222 32 24 L 32 14 C 32 13.477778 31.814531 12.939531 31.4375 12.5625 C 31.060469 12.185469 30.522222 12 30 12 L 24 12 L 24 7 L 24 6 L 23 6 L 3 6 L 2 6 z M 4 8 L 22 8 L 22 12 L 16 12 C 15.477778 12 14.939531 12.185469 14.5625 12.5625 C 14.185469 12.939531 14 13.477778 14 14 L 14 19 L 4 19 L 4 8 z M 16 14 L 30 14 L 30 24 L 19 24 L 16 24 L 16 14 z M 3.5625 21 L 14 21 L 14 24 L 2.5 24 C 2.2833333 24 2 23.716667 2 23.5 C 2 23.422222 2.0103385 23.328242 2.125 23.15625 L 3.5625 21 z M 21 21 L 21 23 L 25 23 L 25 21 L 21 21 z" color="#000" overflow="visible" enable-background="accumulate" font-family="Bitstream Vera Sans"/>
</svg>