<svg xmlns="http://www.w3.org/2000/svg" viewBox="0 0 32 32" enable-background="new 0 0 32 32">
    <path style="text-indent:0;text-align:start;line-height:normal;text-transform:none;block-progression:tb;-inkscape-font-specification:Bitstream Vera Sans" d="M 4 5 L 4 6 L 4 26 L 4 27 L 5 27 L 27 27 L 28 27 L 28 26 L 28 6 L 28 5 L 27 5 L 5 5 L 4 5 z M 6 7 L 26 7 L 26 9 L 6 9 L 6 7 z M 6 11 L 26 11 L 26 25 L 6 25 L 6 11 z M 9 13 L 9 15 L 23 15 L 23 13 L 9 13 z M 9 17 L 9 19 L 11 19 L 11 17 L 9 17 z M 13 17 L 13 19 L 23 19 L 23 17 L 13 17 z M 9 21 L 9 23 L 11 23 L 11 21 L 9 21 z M 13 21 L 13 23 L 23 23 L 23 21 L 13 21 z"/>
</svg>