<svg xmlns="http://www.w3.org/2000/svg" viewBox="0 0 32 32" enable-background="new 0 0 32 32">
    <path style="text-indent:0;text-align:start;line-height:normal;text-transform:none;block-progression:tb;-inkscape-font-specification:Bitstream Vera Sans" d="M 6 4 L 6 5 L 6 27 L 6 28 L 7 28 L 25 28 L 26 28 L 26 27 L 26 5 L 26 4 L 25 4 L 7 4 L 6 4 z M 8 6 L 24 6 L 24 26 L 8 26 L 8 6 z M 10 9 L 10 11 L 22 11 L 22 9 L 10 9 z M 10 13 L 10 15 L 12 15 L 12 13 L 10 13 z M 14 13 L 14 15 L 22 15 L 22 13 L 14 13 z M 10 17 L 10 19 L 12 19 L 12 17 L 10 17 z M 14 17 L 14 19 L 22 19 L 22 17 L 14 17 z M 10 21 L 10 23 L 12 23 L 12 21 L 10 21 z M 14 21 L 14 23 L 22 23 L 22 21 L 14 21 z"/>
</svg>