<?xml version="1.0" encoding="iso-8859-1"?>
<!-- Generator: Adobe Illustrator 19.0.0, SVG Export Plug-In . SVG Version: 6.00 Build 0)  -->
<svg version="1.1" id="Layer_1" xmlns="http://www.w3.org/2000/svg" xmlns:xlink="http://www.w3.org/1999/xlink" x="0px" y="0px"
	 viewBox="0 0 512 512" style="enable-background:new 0 0 512 512;" xml:space="preserve">
<rect x="4" y="109.852" style="fill:#FFFFFF;" width="504" height="358.496"/>
<g>
	<polygon style="fill:#E2E2E2;" points="369.968,431.172 142.032,431.172 104.664,459.588 407.336,459.588 	"/>
	<polygon style="fill:#E2E2E2;" points="113.32,431.172 47.632,431.172 10.256,459.588 76.072,459.588 	"/>
	<polygon style="fill:#E2E2E2;" points="464.368,431.172 398.68,431.172 435.928,459.588 501.744,459.588 	"/>
	<polygon style="fill:#E2E2E2;" points="369.968,147.788 142.032,147.788 104.664,119.372 407.336,119.372 	"/>
	<polygon style="fill:#E2E2E2;" points="113.32,147.788 47.632,147.788 10.256,119.372 76.072,119.372 	"/>
	<polygon style="fill:#E2E2E2;" points="464.368,147.788 398.68,147.788 435.928,119.372 501.744,119.372 	"/>
</g>
<path style="fill:#E5E5E5;" d="M504,113.852v350.496H8V113.852H504 M512,105.852H0v366.496h512V105.852L512,105.852z"/>
<path d="M0,119.372V55.636c0-8.8,7.2-16,16-16h479.96c8.8,0,16,7.2,16,16v63.728H0V119.372z"/>
<polygon style="fill:#FFFFFF;" points="471.624,101.508 171.536,101.508 200.24,57.508 471.624,57.508 "/>
<circle style="fill:#E21B1B;" cx="53.904" cy="78.908" r="13.608"/>
<circle style="fill:#939393;" cx="89.976" cy="78.908" r="13.608"/>
<circle style="fill:#E2E2E2;" cx="126.056" cy="78.908" r="13.608"/>
<path d="M215.624,71.244l1.912,8.312c0.416,1.952,0.832,3.944,1.168,5.936h0.08c0.376-1.992,0.976-4.024,1.504-5.896l2.368-8.352
	h3.76l2.296,8.128c0.56,2.144,1.048,4.136,1.464,6.128h0.08c0.296-1.992,0.712-3.984,1.2-6.128l2.032-8.128h4.544l-5.752,18.312
	h-4.288l-2.176-7.448c-0.56-1.912-0.976-3.648-1.392-5.864h-0.08c-0.376,2.256-0.856,4.064-1.392,5.864l-2.328,7.448h-4.328
	l-5.416-18.312H215.624z"/>
<path d="M244.392,71.244l1.912,8.312c0.416,1.952,0.832,3.944,1.168,5.936h0.08c0.376-1.992,0.976-4.024,1.504-5.896l2.368-8.352
	h3.76l2.296,8.128c0.56,2.144,1.048,4.136,1.464,6.128h0.08c0.296-1.992,0.712-3.984,1.2-6.128l2.032-8.128h4.544l-5.752,18.312
	h-4.288l-2.176-7.448c-0.56-1.912-0.976-3.648-1.392-5.864h-0.08c-0.376,2.256-0.856,4.064-1.392,5.864l-2.328,7.448h-4.328
	l-5.416-18.312H244.392z"/>
<path d="M273.152,71.244l1.912,8.312c0.416,1.952,0.832,3.944,1.168,5.936h0.08c0.376-1.992,0.976-4.024,1.504-5.896l2.368-8.352
	h3.76l2.296,8.128c0.56,2.144,1.048,4.136,1.464,6.128h0.08c0.296-1.992,0.712-3.984,1.2-6.128l2.032-8.128h4.544l-5.752,18.312
	h-4.288l-2.176-7.448c-0.56-1.912-0.976-3.648-1.392-5.864h-0.08c-0.376,2.256-0.856,4.064-1.392,5.864l-2.328,7.448h-4.328
	l-5.416-18.312H273.152z"/>
<path d="M296.312,87.004c0-1.736,1.2-2.968,2.856-2.968c1.696,0,2.856,1.2,2.856,2.968c0,1.688-1.128,2.968-2.856,2.968
	C297.48,89.972,296.312,88.692,296.312,87.004z"/>
<polygon points="342.688,464.212 169.312,464.212 193.312,445.964 318.688,445.964 "/>
<rect y="459.596" width="512" height="12.768"/>
<polygon points="501.744,459.588 435.928,459.588 407.336,459.588 104.664,459.588 76.072,459.588 10.256,459.588 0,459.588 
	0,472.356 512,472.356 512,459.588 "/>
<polygon points="440.352,92.508 437.496,89.708 447.384,79.548 436.904,69.324 439.696,66.468 453.04,79.468 "/>
<rect x="421.616" y="77.508" width="26.416" height="4"/>
<g>
	<path style="fill:#E21B1B;" d="M157.888,261.356c3.408-0.68,10.304-1.192,16.784-1.192c7.92,0,12.776,0.768,16.952,3.24
		c4,2.128,6.904,6.048,6.904,11.24c0,5.112-2.976,9.88-9.456,12.264v0.168c6.552,1.792,11.408,6.728,11.408,14.136
		c0,5.2-2.384,9.28-5.96,12.184c-4.176,3.32-11.16,5.192-22.568,5.192c-6.392,0-11.16-0.424-14.056-0.856v-56.376H157.888z
		 M170.752,283.324h4.256c6.816,0,10.472-2.808,10.472-7.072c0-4.344-3.32-6.64-9.192-6.64c-2.808,0-4.432,0.176-5.536,0.344
		V283.324z M170.752,308.796c1.28,0.168,2.816,0.168,5.032,0.168c5.872,0,11.072-2.216,11.072-8.264c0-5.792-5.2-8.096-11.664-8.096
		h-4.432v16.192H170.752z"/>
	<path style="fill:#E21B1B;" d="M207.648,304.62c3.496,1.792,8.856,3.576,14.4,3.576c5.96,0,9.112-2.472,9.112-6.216
		c0-3.576-2.728-5.624-9.632-8.096c-9.536-3.32-15.76-8.6-15.76-16.952c0-9.792,8.184-17.288,21.72-17.288
		c6.472,0,11.24,1.36,14.648,2.896l-2.888,10.48c-2.304-1.112-6.392-2.728-12.016-2.728s-8.352,2.56-8.352,5.536
		c0,3.656,3.24,5.28,10.656,8.096c10.128,3.744,14.904,9.024,14.904,17.12c0,9.624-7.416,17.8-23.168,17.8
		c-6.56,0-13.032-1.704-16.272-3.496L207.648,304.62z"/>
	<path style="fill:#E21B1B;" d="M293.272,316.372c-2.384,1.192-7.744,2.472-14.736,2.472c-19.84,0-30.064-12.352-30.064-28.704
		c0-19.592,13.968-30.496,31.344-30.496c6.728,0,11.84,1.36,14.136,2.56l-2.64,10.304c-2.64-1.104-6.304-2.128-10.904-2.128
		c-10.304,0-18.312,6.216-18.312,18.992c0,11.496,6.816,18.736,18.4,18.736c3.912,0,8.264-0.856,10.816-1.872L293.272,316.372z"/>
	<path style="fill:#E21B1B;" d="M299.68,261.356c4.168-0.68,10.392-1.192,17.296-1.192c8.512,0,14.48,1.28,18.568,4.512
		c3.408,2.728,5.272,6.728,5.272,12.008c0,7.328-5.192,12.352-10.128,14.136v0.256c4,1.616,6.216,5.448,7.664,10.728
		c1.784,6.472,3.576,13.968,4.68,16.184h-13.288c-0.936-1.616-2.296-6.304-4-13.376c-1.528-7.152-4-9.112-9.28-9.192h-3.92v22.568
		H299.68V261.356z M312.536,286.052h5.112c6.472,0,10.304-3.24,10.304-8.264c0-5.28-3.576-7.92-9.544-8
		c-3.152,0-4.936,0.256-5.88,0.424v15.84H312.536z"/>
	<path style="fill:#E21B1B;" d="M361.112,260.588v57.408H348.08v-57.408H361.112z"/>
	<path style="fill:#E21B1B;" d="M370.224,261.356c3.408-0.68,10.304-1.192,16.784-1.192c7.92,0,12.776,0.768,16.952,3.24
		c4,2.128,6.904,6.048,6.904,11.24c0,5.112-2.976,9.88-9.456,12.264v0.168c6.552,1.792,11.408,6.728,11.408,14.136
		c0,5.2-2.384,9.28-5.96,12.184c-4.176,3.32-11.16,5.192-22.568,5.192c-6.392,0-11.16-0.424-14.056-0.856v-56.376H370.224z
		 M383.088,283.324h4.256c6.816,0,10.472-2.808,10.472-7.072c0-4.344-3.32-6.64-9.192-6.64c-2.808,0-4.432,0.176-5.536,0.344
		L383.088,283.324L383.088,283.324z M383.088,308.796c1.28,0.168,2.816,0.168,5.032,0.168c5.872,0,11.072-2.216,11.072-8.264
		c0-5.792-5.2-8.096-11.664-8.096h-4.432v16.192H383.088z"/>
	<path style="fill:#E21B1B;" d="M453.712,293.716h-21.12v13.624h23.592v10.648H419.56V260.58H455v10.648h-22.4v11.928h21.12v10.56
		H453.712z"/>
	<path style="fill:#E21B1B;" d="M58.456,304.62c3.496,1.792,8.856,3.576,14.4,3.576c5.96,0,9.112-2.472,9.112-6.216
		c0-3.576-2.728-5.624-9.632-8.096c-9.536-3.32-15.76-8.6-15.76-16.952c0-9.792,8.184-17.288,21.72-17.288
		c6.472,0,11.24,1.36,14.648,2.896l-2.888,10.48c-2.304-1.112-6.392-2.728-12.016-2.728s-8.352,2.56-8.352,5.536
		c0,3.656,3.24,5.28,10.656,8.096c10.128,3.744,14.904,9.024,14.904,17.12c0,9.624-7.408,17.8-23.168,17.8
		c-6.56,0-13.032-1.704-16.272-3.496L58.456,304.62z"/>
	<path style="fill:#E21B1B;" d="M114.856,260.588v33.048c0,9.88,3.744,14.904,10.392,14.904c6.816,0,10.56-4.768,10.56-14.904
		v-33.048h12.944v32.192c0,17.712-8.944,26.144-23.928,26.144c-14.488,0-23-8-23-26.32V260.58h13.032V260.588z"/>
</g>
<g>
</g>
<g>
</g>
<g>
</g>
<g>
</g>
<g>
</g>
<g>
</g>
<g>
</g>
<g>
</g>
<g>
</g>
<g>
</g>
<g>
</g>
<g>
</g>
<g>
</g>
<g>
</g>
<g>
</g>
</svg>
