<?xml version="1.0" encoding="iso-8859-1"?>
<!-- Generator: Adobe Illustrator 19.0.0, SVG Export Plug-In . SVG Version: 6.00 Build 0)  -->
<svg version="1.1" id="Layer_1" xmlns="http://www.w3.org/2000/svg" xmlns:xlink="http://www.w3.org/1999/xlink" x="0px" y="0px"
	 viewBox="0 0 512 512" style="enable-background:new 0 0 512 512;" xml:space="preserve">
<path d="M0,346.4V36.8c0-5.6,4.8-9.6,10.4-9.6h491.2c5.6,0,10.4,4.8,10.4,9.6v310.4H0V346.4z"/>
<g style="opacity:0.12;">
	<rect x="21.6" y="50.4" style="fill:#FFFFFF;" width="16" height="16"/>
	<rect x="56" y="50.4" style="fill:#FFFFFF;" width="16" height="16"/>
	<rect x="91.2" y="50.4" style="fill:#FFFFFF;" width="16" height="16"/>
	<rect x="125.6" y="50.4" style="fill:#FFFFFF;" width="16" height="16"/>
	<rect x="160.8" y="50.4" style="fill:#FFFFFF;" width="16" height="16"/>
	<rect x="196" y="50.4" style="fill:#FFFFFF;" width="16" height="16"/>
	<rect x="230.4" y="50.4" style="fill:#FFFFFF;" width="16" height="16"/>
	<rect x="265.6" y="50.4" style="fill:#FFFFFF;" width="16" height="16"/>
	<rect x="300" y="50.4" style="fill:#FFFFFF;" width="16" height="16"/>
	<rect x="335.2" y="50.4" style="fill:#FFFFFF;" width="16" height="16"/>
	<rect x="370.4" y="50.4" style="fill:#FFFFFF;" width="16" height="16"/>
	<rect x="404.8" y="50.4" style="fill:#FFFFFF;" width="16" height="16"/>
	<rect x="440" y="50.4" style="fill:#FFFFFF;" width="16" height="16"/>
	<rect x="474.4" y="50.4" style="fill:#FFFFFF;" width="16" height="16"/>
	<rect x="21.6" y="82.4" style="fill:#FFFFFF;" width="16" height="16"/>
	<rect x="56" y="82.4" style="fill:#FFFFFF;" width="16" height="16"/>
	<rect x="91.2" y="82.4" style="fill:#FFFFFF;" width="16" height="16"/>
	<rect x="125.6" y="82.4" style="fill:#FFFFFF;" width="16" height="16"/>
	<rect x="160.8" y="82.4" style="fill:#FFFFFF;" width="16" height="16"/>
	<rect x="196" y="82.4" style="fill:#FFFFFF;" width="16" height="16"/>
	<rect x="230.4" y="82.4" style="fill:#FFFFFF;" width="16" height="16"/>
	<rect x="265.6" y="82.4" style="fill:#FFFFFF;" width="16" height="16"/>
	<rect x="300" y="82.4" style="fill:#FFFFFF;" width="16" height="16"/>
	<rect x="335.2" y="82.4" style="fill:#FFFFFF;" width="16" height="16"/>
	<rect x="370.4" y="82.4" style="fill:#FFFFFF;" width="16" height="16"/>
	<rect x="404.8" y="82.4" style="fill:#FFFFFF;" width="16" height="16"/>
	<rect x="440" y="82.4" style="fill:#FFFFFF;" width="16" height="16"/>
	<rect x="474.4" y="82.4" style="fill:#FFFFFF;" width="16" height="16"/>
	<rect x="21.6" y="114.4" style="fill:#FFFFFF;" width="16" height="16"/>
	<rect x="56" y="114.4" style="fill:#FFFFFF;" width="16" height="16"/>
	<rect x="91.2" y="114.4" style="fill:#FFFFFF;" width="16" height="16"/>
	<rect x="125.6" y="114.4" style="fill:#FFFFFF;" width="16" height="16"/>
	<rect x="160.8" y="114.4" style="fill:#FFFFFF;" width="16" height="16"/>
	<rect x="196" y="114.4" style="fill:#FFFFFF;" width="16" height="16"/>
	<rect x="230.4" y="114.4" style="fill:#FFFFFF;" width="16" height="16"/>
	<rect x="265.6" y="114.4" style="fill:#FFFFFF;" width="16" height="16"/>
	<rect x="300" y="114.4" style="fill:#FFFFFF;" width="16" height="16"/>
	<rect x="335.2" y="114.4" style="fill:#FFFFFF;" width="16" height="16"/>
	<rect x="370.4" y="114.4" style="fill:#FFFFFF;" width="16" height="16"/>
	<rect x="404.8" y="114.4" style="fill:#FFFFFF;" width="16" height="16"/>
	<rect x="440" y="114.4" style="fill:#FFFFFF;" width="16" height="16"/>
	<rect x="474.4" y="114.4" style="fill:#FFFFFF;" width="16" height="16"/>
	<rect x="21.6" y="146.4" style="fill:#FFFFFF;" width="16" height="16"/>
	<rect x="56" y="146.4" style="fill:#FFFFFF;" width="16" height="16"/>
	<rect x="91.2" y="146.4" style="fill:#FFFFFF;" width="16" height="16"/>
	<rect x="125.6" y="146.4" style="fill:#FFFFFF;" width="16" height="16"/>
	<rect x="160.8" y="146.4" style="fill:#FFFFFF;" width="16" height="16"/>
	<rect x="196" y="146.4" style="fill:#FFFFFF;" width="16" height="16"/>
	<rect x="230.4" y="146.4" style="fill:#FFFFFF;" width="16" height="16"/>
	<rect x="265.6" y="146.4" style="fill:#FFFFFF;" width="16" height="16"/>
	<rect x="300" y="146.4" style="fill:#FFFFFF;" width="16" height="16"/>
	<rect x="335.2" y="146.4" style="fill:#FFFFFF;" width="16" height="16"/>
	<rect x="370.4" y="146.4" style="fill:#FFFFFF;" width="16" height="16"/>
	<rect x="404.8" y="146.4" style="fill:#FFFFFF;" width="16" height="16"/>
	<rect x="440" y="146.4" style="fill:#FFFFFF;" width="16" height="16"/>
	<rect x="474.4" y="146.4" style="fill:#FFFFFF;" width="16" height="16"/>
	<rect x="21.6" y="178.4" style="fill:#FFFFFF;" width="16" height="16"/>
	<rect x="56" y="178.4" style="fill:#FFFFFF;" width="16" height="16"/>
	<rect x="91.2" y="178.4" style="fill:#FFFFFF;" width="16" height="16"/>
	<rect x="125.6" y="178.4" style="fill:#FFFFFF;" width="16" height="16"/>
	<rect x="160.8" y="178.4" style="fill:#FFFFFF;" width="16" height="16"/>
	<rect x="196" y="178.4" style="fill:#FFFFFF;" width="16" height="16"/>
	<rect x="230.4" y="178.4" style="fill:#FFFFFF;" width="16" height="16"/>
	<rect x="265.6" y="178.4" style="fill:#FFFFFF;" width="16" height="16"/>
	<rect x="300" y="178.4" style="fill:#FFFFFF;" width="16" height="16"/>
	<rect x="335.2" y="178.4" style="fill:#FFFFFF;" width="16" height="16"/>
	<rect x="370.4" y="178.4" style="fill:#FFFFFF;" width="16" height="16"/>
	<rect x="404.8" y="178.4" style="fill:#FFFFFF;" width="16" height="16"/>
	<rect x="440" y="178.4" style="fill:#FFFFFF;" width="16" height="16"/>
	<rect x="474.4" y="178.4" style="fill:#FFFFFF;" width="16" height="16"/>
	<rect x="21.6" y="210.4" style="fill:#FFFFFF;" width="16" height="16"/>
	<rect x="56" y="210.4" style="fill:#FFFFFF;" width="16" height="16"/>
	<rect x="91.2" y="210.4" style="fill:#FFFFFF;" width="16" height="16"/>
	<rect x="125.6" y="210.4" style="fill:#FFFFFF;" width="16" height="16"/>
	<rect x="160.8" y="210.4" style="fill:#FFFFFF;" width="16" height="16"/>
	<rect x="196" y="210.4" style="fill:#FFFFFF;" width="16" height="16"/>
	<rect x="230.4" y="210.4" style="fill:#FFFFFF;" width="16" height="16"/>
	<rect x="265.6" y="210.4" style="fill:#FFFFFF;" width="16" height="16"/>
	<rect x="300" y="210.4" style="fill:#FFFFFF;" width="16" height="16"/>
	<rect x="335.2" y="210.4" style="fill:#FFFFFF;" width="16" height="16"/>
	<rect x="370.4" y="210.4" style="fill:#FFFFFF;" width="16" height="16"/>
	<rect x="404.8" y="210.4" style="fill:#FFFFFF;" width="16" height="16"/>
	<rect x="440" y="210.4" style="fill:#FFFFFF;" width="16" height="16"/>
	<rect x="474.4" y="210.4" style="fill:#FFFFFF;" width="16" height="16"/>
	<rect x="21.6" y="242.4" style="fill:#FFFFFF;" width="16" height="16"/>
	<rect x="56" y="242.4" style="fill:#FFFFFF;" width="16" height="16"/>
	<rect x="91.2" y="242.4" style="fill:#FFFFFF;" width="16" height="16"/>
	<rect x="125.6" y="242.4" style="fill:#FFFFFF;" width="16" height="16"/>
	<rect x="160.8" y="242.4" style="fill:#FFFFFF;" width="16" height="16"/>
	<rect x="196" y="242.4" style="fill:#FFFFFF;" width="16" height="16"/>
	<rect x="230.4" y="242.4" style="fill:#FFFFFF;" width="16" height="16"/>
	<rect x="265.6" y="242.4" style="fill:#FFFFFF;" width="16" height="16"/>
	<rect x="300" y="242.4" style="fill:#FFFFFF;" width="16" height="16"/>
	<rect x="335.2" y="242.4" style="fill:#FFFFFF;" width="16" height="16"/>
	<rect x="370.4" y="242.4" style="fill:#FFFFFF;" width="16" height="16"/>
	<rect x="404.8" y="242.4" style="fill:#FFFFFF;" width="16" height="16"/>
	<rect x="440" y="242.4" style="fill:#FFFFFF;" width="16" height="16"/>
	<rect x="474.4" y="242.4" style="fill:#FFFFFF;" width="16" height="16"/>
	<rect x="21.6" y="274.4" style="fill:#FFFFFF;" width="16" height="16"/>
	<rect x="56" y="274.4" style="fill:#FFFFFF;" width="16" height="16"/>
	<rect x="91.2" y="274.4" style="fill:#FFFFFF;" width="16" height="16"/>
	<rect x="125.6" y="274.4" style="fill:#FFFFFF;" width="16" height="16"/>
	<rect x="160.8" y="274.4" style="fill:#FFFFFF;" width="16" height="16"/>
	<rect x="196" y="274.4" style="fill:#FFFFFF;" width="16" height="16"/>
	<rect x="230.4" y="274.4" style="fill:#FFFFFF;" width="16" height="16"/>
	<rect x="265.6" y="274.4" style="fill:#FFFFFF;" width="16" height="16"/>
	<rect x="300" y="274.4" style="fill:#FFFFFF;" width="16" height="16"/>
	<rect x="335.2" y="274.4" style="fill:#FFFFFF;" width="16" height="16"/>
	<rect x="370.4" y="274.4" style="fill:#FFFFFF;" width="16" height="16"/>
	<rect x="404.8" y="274.4" style="fill:#FFFFFF;" width="16" height="16"/>
	<rect x="440" y="274.4" style="fill:#FFFFFF;" width="16" height="16"/>
	<rect x="474.4" y="274.4" style="fill:#FFFFFF;" width="16" height="16"/>
	<rect x="21.6" y="306.4" style="fill:#FFFFFF;" width="16" height="16"/>
	<rect x="56" y="306.4" style="fill:#FFFFFF;" width="16" height="16"/>
	<rect x="91.2" y="306.4" style="fill:#FFFFFF;" width="16" height="16"/>
	<rect x="125.6" y="306.4" style="fill:#FFFFFF;" width="16" height="16"/>
	<rect x="160.8" y="306.4" style="fill:#FFFFFF;" width="16" height="16"/>
	<rect x="196" y="306.4" style="fill:#FFFFFF;" width="16" height="16"/>
	<rect x="230.4" y="306.4" style="fill:#FFFFFF;" width="16" height="16"/>
	<rect x="265.6" y="306.4" style="fill:#FFFFFF;" width="16" height="16"/>
	<rect x="300" y="306.4" style="fill:#FFFFFF;" width="16" height="16"/>
	<rect x="335.2" y="306.4" style="fill:#FFFFFF;" width="16" height="16"/>
	<rect x="370.4" y="306.4" style="fill:#FFFFFF;" width="16" height="16"/>
	<rect x="404.8" y="306.4" style="fill:#FFFFFF;" width="16" height="16"/>
	<rect x="440" y="306.4" style="fill:#FFFFFF;" width="16" height="16"/>
	<rect x="474.4" y="306.4" style="fill:#FFFFFF;" width="16" height="16"/>
</g>
<path style="fill:#D8D8D8;" d="M512,346.4v42.4c0,5.6-4.8,10.4-10.4,10.4H10.4C4.8,400,0,395.2,0,389.6v-42.4L512,346.4L512,346.4z"
	/>
<polygon style="fill:#BCBCBC;" points="181.6,474.4 330.4,474.4 320,400 192,400 "/>
<polygon style="fill:#AAAAAA;" points="320,400 192,400 185.6,446.4 322.4,417.6 "/>
<rect x="144" y="474.4" style="fill:#D8D8D8;" width="224" height="10.4"/>
<polygon style="fill:#939393;" points="192,400 320,400 320.8,404.8 188.8,423.2 "/>
<path style="fill:#E21B1B;" d="M390.4,241.6H121.6c-8,0-13.6-6.4-13.6-13.6v-82.4c0-8,6.4-13.6,13.6-13.6h268.8
	c8,0,13.6,6.4,13.6,13.6V228C404,236,398.4,241.6,390.4,241.6z"/>
<g>
	<polygon style="fill:#FFFFFF;" points="440.8,130.4 411.2,131.2 447.2,94.4 433.6,80.8 397.6,116.8 397.6,87.2 378.4,87.2 
		377.6,150.4 440.8,149.6 	"/>
	<path style="fill:#FFFFFF;" d="M136,200c2.4,1.6,5.6,2.4,9.6,2.4c4.8,0,7.2-2.4,7.2-5.6c0-3.2-1.6-4.8-7.2-6.4
		c-6.4-2.4-10.4-5.6-10.4-11.2c0-6.4,5.6-11.2,13.6-11.2c4,0,7.2,0.8,9.6,1.6l-1.6,5.6c-1.6-0.8-4-1.6-8-1.6c-4.8,0-6.4,2.4-6.4,4.8
		c0,3.2,2.4,4.8,7.2,6.4c7.2,2.4,10.4,5.6,10.4,12s-4.8,12-15.2,12c-4,0-8.8-0.8-10.4-2.4L136,200z"/>
	<path style="fill:#FFFFFF;" d="M191.2,199.2c0,3.2,0,6.4,0,8.8h-6.4v-4l0,0c-0.8,1.6-4,4-8.8,4s-9.6-3.2-9.6-12v-16.8h7.2v15.2
		c0,4.8,1.6,8,5.6,8c3.2,0,4.8-2.4,5.6-4c0-0.8,0.8-1.6,0.8-2.4v-16.8h7.2L191.2,199.2L191.2,199.2z"/>
	<path style="fill:#FFFFFF;" d="M199.2,207.2c0-1.6,0-4.8,0-8v-33.6h7.2v16.8l0,0c1.6-2.4,4.8-4.8,8.8-4.8c7.2,0,12,5.6,12,14.4
		c0,10.4-6.4,15.2-12.8,15.2c-4,0-7.2-1.6-8.8-4.8l0,0v4C204.8,207.2,199.2,207.2,199.2,207.2z M206.4,196c0,0.8,0,0.8,0,1.6
		c0.8,3.2,3.2,4.8,6.4,4.8c4.8,0,7.2-4,7.2-9.6c0-4.8-2.4-8.8-7.2-8.8c-3.2,0-5.6,2.4-6.4,5.6c0,0.8,0,0.8,0,1.6V196L206.4,196z"/>
	<path style="fill:#FFFFFF;" d="M232.8,200.8c1.6,0.8,4.8,2.4,7.2,2.4c3.2,0,4.8-1.6,4.8-3.2c0-1.6-0.8-3.2-4.8-4
		c-5.6-1.6-8-4.8-8-8c0-4.8,4-8.8,10.4-8.8c3.2,0,5.6,0.8,7.2,1.6l-1.6,4.8c0-0.8-2.4-1.6-4.8-1.6c-2.4,0-4,1.6-4,3.2
		c0,1.6,1.6,2.4,4.8,4c4.8,1.6,7.2,4.8,7.2,8.8c0,4.8-4,8.8-11.2,8.8c-3.2,0-6.4-0.8-8.8-1.6L232.8,200.8z"/>
	<path style="fill:#FFFFFF;" d="M278.4,206.4c-1.6,0.8-4.8,1.6-8,1.6c-8.8,0-14.4-5.6-14.4-14.4c0-8.8,5.6-15.2,16-15.2
		c2.4,0,5.6,0.8,7.2,1.6l-1.6,5.6c-1.6-0.8-3.2-1.6-5.6-1.6c-5.6,0-8.8,4-8.8,8.8c0,5.6,4,8.8,8.8,8.8c2.4,0,4-0.8,5.6-0.8
		L278.4,206.4z"/>
	<path style="fill:#FFFFFF;" d="M284,188c0-4,0-6.4,0-8.8h6.4v5.6l0,0c1.6-4,4.8-6.4,8-6.4c0.8,0,0.8,0,1.6,0v6.4
		c-0.8,0-1.6,0-2.4,0c-3.2,0-5.6,2.4-6.4,5.6c0,0.8,0,1.6,0,2.4v14.4H284V188L284,188z"/>
	<path style="fill:#FFFFFF;" d="M312,171.2c0,2.4-1.6,4-4,4s-4-1.6-4-4s1.6-4,4-4S312,168.8,312,171.2z M304,207.2v-28h7.2v28H304z"
		/>
	<path style="fill:#FFFFFF;" d="M319.2,207.2c0-1.6,0-4.8,0-8v-33.6h7.2v16.8l0,0c1.6-2.4,4.8-4.8,8.8-4.8c7.2,0,12,5.6,12,14.4
		c0,10.4-6.4,15.2-12.8,15.2c-4,0-7.2-1.6-8.8-4.8l0,0v4C324.8,207.2,319.2,207.2,319.2,207.2z M326.4,196c0,0.8,0,0.8,0,1.6
		c0.8,3.2,3.2,4.8,6.4,4.8c4.8,0,7.2-4,7.2-9.6c0-4.8-2.4-8.8-7.2-8.8c-3.2,0-5.6,2.4-6.4,5.6c0,0.8,0,0.8,0,1.6V196L326.4,196z"/>
	<path style="fill:#FFFFFF;" d="M358.4,195.2c0,4.8,4,7.2,8.8,7.2c3.2,0,5.6-0.8,8-1.6l0.8,4.8c-2.4,0.8-5.6,1.6-9.6,1.6
		c-8.8,0-14.4-5.6-14.4-14.4c0-8,4.8-15.2,13.6-15.2c8.8,0,12,7.2,12,13.6c0,1.6,0,2.4,0,3.2L358.4,195.2L358.4,195.2z M370.4,190.4
		c0-2.4-0.8-7.2-5.6-7.2c-4.8,0-6.4,4-6.4,7.2H370.4z"/>
</g>
<g>
</g>
<g>
</g>
<g>
</g>
<g>
</g>
<g>
</g>
<g>
</g>
<g>
</g>
<g>
</g>
<g>
</g>
<g>
</g>
<g>
</g>
<g>
</g>
<g>
</g>
<g>
</g>
<g>
</g>
</svg>
